<svg width="19" height="19" viewBox="0 0 19 19" fill="none" xmlns="http://www.w3.org/2000/svg">
<path fill-rule="evenodd" clip-rule="evenodd" d="M9.2 16.8667C13.1765 16.8667 16.4 13.6431 16.4 9.66667C16.4 5.69022 13.1765 2.46667 9.2 2.46667C5.22355 2.46667 2 5.69022 2 9.66667C2 13.6431 5.22355 16.8667 9.2 16.8667ZM12.5364 8.50307C12.8878 8.1516 12.8878 7.58175 12.5364 7.23028C12.1849 6.87881 11.6151 6.87881 11.2636 7.23028L8.3 10.1939L7.1364 9.03027C6.78492 8.67881 6.21508 8.67881 5.8636 9.03027C5.51213 9.38175 5.51213 9.95161 5.8636 10.3031L7.6636 12.1031C8.01508 12.4545 8.58492 12.4545 8.9364 12.1031L12.5364 8.50307Z" fill="#03781F"/>
</svg>
