<svg width="24" height="24" viewBox="0 0 24 24" fill="none" xmlns="http://www.w3.org/2000/svg">
<path fill-rule="evenodd" clip-rule="evenodd" d="M12.0004 21.6C17.3024 21.6 21.6004 17.302 21.6004 12C21.6004 6.69809 17.3024 2.40002 12.0004 2.40002C6.69845 2.40002 2.40039 6.69809 2.40039 12C2.40039 17.302 6.69845 21.6 12.0004 21.6ZM13.2004 8.40002C13.2004 7.73729 12.6631 7.20002 12.0004 7.20002C11.3377 7.20002 10.8004 7.73729 10.8004 8.40002V10.8H8.40039C7.73765 10.8 7.20039 11.3373 7.20039 12C7.20039 12.6628 7.73765 13.2 8.40039 13.2H10.8004V15.6C10.8004 16.2628 11.3377 16.8 12.0004 16.8C12.6631 16.8 13.2004 16.2628 13.2004 15.6V13.2H15.6004C16.2632 13.2 16.8004 12.6628 16.8004 12C16.8004 11.3373 16.2632 10.8 15.6004 10.8H13.2004V8.40002Z" fill="#1A1A1A"/>
</svg>
