<svg width="18" height="19" viewBox="0 0 18 19" fill="none" xmlns="http://www.w3.org/2000/svg">
<path fill-rule="evenodd" clip-rule="evenodd" d="M9.00078 16.8668C12.9773 16.8668 16.2008 13.6433 16.2008 9.6668C16.2008 5.69034 12.9773 2.4668 9.00078 2.4668C5.02433 2.4668 1.80078 5.69034 1.80078 9.6668C1.80078 13.6433 5.02433 16.8668 9.00078 16.8668ZM9.90078 6.9668C9.90078 6.46974 9.49785 6.0668 9.00078 6.0668C8.50373 6.0668 8.10078 6.46974 8.10078 6.9668V8.7668H6.30078C5.80373 8.7668 5.40078 9.16974 5.40078 9.6668C5.40078 10.1639 5.80373 10.5668 6.30078 10.5668H8.10078V12.3668C8.10078 12.8639 8.50373 13.2668 9.00078 13.2668C9.49785 13.2668 9.90078 12.8639 9.90078 12.3668V10.5668H11.7008C12.1979 10.5668 12.6008 10.1639 12.6008 9.6668C12.6008 9.16974 12.1979 8.7668 11.7008 8.7668H9.90078V6.9668Z" fill="#1A1A1A" fill-opacity="0.5"/>
</svg>
