<svg width="16" height="16" viewBox="0 0 16 16" fill="none" xmlns="http://www.w3.org/2000/svg">
<path d="M6.4 7.20027C7.72548 7.20027 8.8 6.12575 8.8 4.80027C8.8 3.47479 7.72548 2.40027 6.4 2.40027C5.07452 2.40027 4 3.47479 4 4.80027C4 6.12575 5.07452 7.20027 6.4 7.20027Z" fill="#1A1A1A" fill-opacity="0.65"/>
<path d="M6.39961 8.80029C9.05057 8.80029 11.1996 10.9493 11.1996 13.6003H1.59961C1.59961 10.9493 3.74864 8.80029 6.39961 8.80029Z" fill="#1A1A1A" fill-opacity="0.65"/>
<path d="M12.7996 5.60029C12.7996 5.15847 12.4414 4.80029 11.9996 4.80029C11.5578 4.80029 11.1996 5.15847 11.1996 5.60029V6.40029H10.3996C9.95777 6.40029 9.59961 6.75846 9.59961 7.20029C9.59961 7.64212 9.95777 8.00029 10.3996 8.00029H11.1996V8.80029C11.1996 9.24213 11.5578 9.60029 11.9996 9.60029C12.4414 9.60029 12.7996 9.24213 12.7996 8.80029V8.00029H13.5996C14.0414 8.00029 14.3996 7.64212 14.3996 7.20029C14.3996 6.75847 14.0414 6.40029 13.5996 6.40029H12.7996V5.60029Z" fill="#1A1A1A" fill-opacity="0.65"/>
</svg>
