<svg width="19" height="19" viewBox="0 0 19 19" fill="none" xmlns="http://www.w3.org/2000/svg">
<path fill-rule="evenodd" clip-rule="evenodd" d="M9.2 16.8668C13.1765 16.8668 16.4 13.6433 16.4 9.6668C16.4 5.69034 13.1765 2.4668 9.2 2.4668C5.22355 2.4668 2 5.69034 2 9.6668C2 13.6433 5.22355 16.8668 9.2 16.8668ZM12.5364 8.5032C12.8878 8.15172 12.8878 7.58187 12.5364 7.2304C12.1849 6.87893 11.6151 6.87893 11.2636 7.2304L8.3 10.194L7.1364 9.0304C6.78492 8.67893 6.21508 8.67893 5.8636 9.0304C5.51213 9.38187 5.51213 9.95174 5.8636 10.3032L7.6636 12.1032C8.01508 12.4546 8.58492 12.4546 8.9364 12.1032L12.5364 8.5032Z" fill="#1A1A1A" fill-opacity="0.15"/>
</svg>
